<?xml version="1.0" standalone="no"?>
<!DOCTYPE svg PUBLIC "-//W3C//DTD SVG 20010904//EN"
 "http://www.w3.org/TR/2001/REC-SVG-20010904/DTD/svg10.dtd">
<svg version="1.0" xmlns="http://www.w3.org/2000/svg"
 width="1280.000000pt" height="340.000000pt" viewBox="0 0 1280.000000 340.000000"
 preserveAspectRatio="xMidYMid meet">
<metadata>
Created by potrace 1.15, written by Peter Selinger 2001-2017
</metadata>
<g transform="translate(0.000000,340.000000) scale(0.100000,-0.100000)"
fill="#ffffff" stroke="none">
<path d="M293 3386 c-84 -16 -156 -39 -235 -73 l-58 -26 0 -1643 0 -1644 6400
0 6400 0 0 1461 0 1462 -61 -7 c-85 -10 -212 -48 -312 -94 l-84 -39 -68 43
c-184 119 -357 132 -534 43 -130 -66 -222 -156 -407 -399 -60 -79 -114 -149
-120 -156 -16 -20 -59 -17 -170 11 -138 35 -330 133 -599 305 -225 144 -390
232 -505 269 -91 29 -211 51 -283 51 -46 0 -70 5 -92 21 -132 89 -292 130
-432 109 -210 -32 -362 -122 -648 -384 -246 -225 -389 -324 -544 -377 -30 -11
-58 -19 -62 -19 -4 0 -59 62 -122 138 -124 148 -259 283 -328 329 -24 15 -80
58 -124 96 -90 76 -204 139 -291 162 -32 8 -100 15 -152 15 l-93 0 -56 45
c-75 61 -174 119 -253 147 -54 19 -84 23 -185 22 -110 0 -127 -3 -203 -32
-184 -69 -318 -187 -565 -494 -164 -205 -287 -335 -373 -394 l-52 -36 -90 77
c-53 44 -136 132 -199 208 -129 158 -222 251 -312 312 -36 25 -97 73 -136 106
-173 148 -374 198 -578 144 l-58 -15 -45 31 c-130 89 -294 121 -425 83 -97
-28 -168 -80 -245 -178 -65 -82 -113 -179 -187 -376 -30 -80 -71 -179 -92
-221 -78 -158 -191 -277 -285 -298 -65 -15 -185 -13 -260 4 -115 27 -143 42
-190 102 -85 109 -171 201 -246 264 -42 35 -121 118 -174 184 -116 144 -232
261 -320 323 -36 25 -94 71 -130 101 -196 164 -382 239 -620 246 -81 3 -150 0
-197 -9z"/>
</g>
</svg>
